<?xml version="1.0" standalone="no"?>
<!DOCTYPE svg PUBLIC "-//W3C//DTD SVG 20010904//EN"
 "http://www.w3.org/TR/2001/REC-SVG-20010904/DTD/svg10.dtd">
<svg version="1.0" xmlns="http://www.w3.org/2000/svg"
 width="260.000000pt" height="260.000000pt" viewBox="0 0 260.000000 260.000000"
 preserveAspectRatio="xMidYMid meet">
<metadata>
Created by potrace 1.11, written by Peter Selinger 2001-2013
</metadata>
<g transform="translate(0.000000,260.000000) scale(0.100000,-0.100000)"
fill="#000000" stroke="none">
<path d="M1326 2149 c-165 -24 -364 -100 -493 -187 -82 -56 -171 -155 -206
-230 -24 -52 -30 -78 -31 -136 -1 -86 22 -135 86 -191 115 -98 307 -141 308
-69 0 5 -16 28 -36 50 -72 77 -88 147 -59 257 57 220 241 354 532 388 301 36
518 -123 482 -352 -14 -89 -83 -195 -160 -246 -37 -25 -41 -25 -104 -13 -116
22 -185 -10 -185 -88 0 -89 84 -117 228 -76 33 9 104 -66 122 -129 18 -66 9
-191 -17 -242 -64 -123 -219 -189 -364 -155 -41 9 -269 107 -269 115 0 0 25
46 55 100 68 123 163 347 251 587 77 212 86 233 148 315 29 38 44 67 40 77
-20 52 -281 -29 -334 -103 -33 -47 -73 -142 -171 -404 -95 -255 -181 -447
-198 -447 -6 0 -48 15 -93 34 -153 63 -266 71 -363 25 -90 -43 -143 -113 -152
-205 -16 -150 114 -261 320 -272 150 -8 262 31 359 125 l37 36 123 -56 c178
-79 244 -98 374 -104 243 -12 428 76 511 244 26 53 28 67 28 168 0 101 -2 114
-28 163 -37 70 -100 137 -159 172 l-48 27 61 38 c84 52 167 137 209 215 33 61
35 70 35 160 0 85 -3 101 -29 149 -63 121 -207 214 -386 251 -102 21 -310 26
-424 9z m-538 -1295 c39 -16 72 -33 72 -38 0 -5 -24 -33 -54 -62 -44 -42 -64
-54 -109 -65 -49 -10 -62 -10 -102 5 -68 26 -90 78 -60 136 35 67 121 75 253
24z"/>
</g>
</svg>
